<svg width="16" height="15" viewBox="0 0 16 15" fill="none" xmlns="http://www.w3.org/2000/svg">
<path d="M3.46391 11.9869C3.46391 11.6019 3.71991 11.5382 3.85494 11.1651C3.89904 11.0433 3.836 10.9087 3.71416 10.8646C3.59222 10.8206 3.45779 10.8835 3.41366 11.0054C3.31966 11.2652 2.99463 11.426 2.99463 11.9869C2.99463 12.6579 3.44872 12.7229 3.44872 13.1916C3.44872 13.6705 2.99463 13.7147 2.99463 14.3963C2.99463 14.5259 3.09966 14.631 3.22925 14.631C3.35885 14.631 3.46388 14.5259 3.46388 14.3963C3.46388 13.9174 3.91797 13.8732 3.91797 13.1916C3.918 12.5205 3.46391 12.4559 3.46391 11.9869Z" fill="#BEAD8E"/>
<path d="M8.33525 11.9869C8.33525 11.6019 8.591 11.5389 8.72628 11.1651C8.7704 11.0433 8.70737 10.9087 8.58553 10.8646C8.46387 10.8206 8.32919 10.8835 8.28506 11.0054C8.1909 11.2654 7.86597 11.4257 7.86597 11.9869C7.86597 12.6579 8.32006 12.7229 8.32006 13.1916C8.32006 13.6705 7.86597 13.7147 7.86597 14.3963C7.86597 14.5259 7.971 14.631 8.10059 14.631C8.23019 14.631 8.33522 14.5259 8.33522 14.3963C8.33522 13.9174 8.78931 13.8732 8.78931 13.1916C8.78937 12.5205 8.33525 12.4559 8.33525 11.9869Z" fill="#BEAD8E"/>
<path d="M5.8997 11.9869C5.8997 11.6018 6.15542 11.5389 6.2907 11.1651C6.33483 11.0433 6.27179 10.9087 6.14995 10.8646C6.02829 10.8206 5.89361 10.8835 5.84948 11.0054C5.75526 11.2655 5.43042 11.4257 5.43042 11.9869C5.43042 12.6579 5.88451 12.7229 5.88451 13.1916C5.88451 13.6705 5.43042 13.7147 5.43042 14.3963C5.43042 14.5259 5.53545 14.631 5.66504 14.631C5.79464 14.631 5.89967 14.5259 5.89967 14.3963C5.89967 13.9174 6.35376 13.8732 6.35376 13.1916C6.35379 12.5205 5.8997 12.4559 5.8997 11.9869Z" fill="#BEAD8E"/>
<path d="M10.7708 11.9869C10.7708 11.6018 11.0265 11.5389 11.1618 11.1651C11.2059 11.0433 11.1429 10.9087 11.021 10.8646C10.8994 10.8206 10.7647 10.8835 10.7206 11.0054C10.6264 11.2655 10.3015 11.4257 10.3015 11.9869C10.3015 12.6579 10.7556 12.7229 10.7556 13.1916C10.7556 13.6705 10.3015 13.7147 10.3015 14.3963C10.3015 14.5259 10.4065 14.631 10.5361 14.631C10.6657 14.631 10.7708 14.5259 10.7708 14.3963C10.7708 13.9174 11.2249 13.8732 11.2249 13.1916C11.2249 12.5205 10.7708 12.4559 10.7708 11.9869Z" fill="#BEAD8E"/>
<path d="M13.2066 11.9869C13.2066 11.6018 13.4623 11.5389 13.5976 11.1651C13.6417 11.0433 13.5787 10.9087 13.4568 10.8646C13.3352 10.8206 13.2005 10.8835 13.1564 11.0054C13.0621 11.2655 12.7373 11.4257 12.7373 11.9869C12.7373 12.6579 13.1914 12.7229 13.1914 13.1916C13.1914 13.6705 12.7373 13.7147 12.7373 14.3963C12.7373 14.5259 12.8423 14.631 12.9719 14.631C13.1015 14.631 13.2066 14.5259 13.2066 14.3963C13.2066 13.9174 13.6606 13.8732 13.6606 13.1916C13.6606 12.5205 13.2066 12.4559 13.2066 11.9869Z" fill="#BEAD8E"/>
<path d="M1.32874 3.15503L1.31042 3.23847C1.28264 3.36503 1.36277 3.49016 1.48933 3.51791C1.61611 3.54566 1.74105 3.46541 1.7688 3.339L1.80917 3.15503H2.22417V3.57003L2.04017 3.61041C1.91361 3.63819 1.83349 3.76331 1.8613 3.88987C1.88908 4.01644 2.01424 4.0965 2.14074 4.06875L2.22417 4.05044V4.18044C2.22417 4.31003 2.32921 4.41506 2.4588 4.41506C2.58839 4.41506 2.69343 4.31 2.69343 4.18044V4.05047L2.77683 4.06878C2.90308 4.09647 3.02846 4.01678 3.05627 3.88991C3.08408 3.76334 3.00396 3.63822 2.87739 3.61044L2.69343 3.57006V3.15506H3.10843L3.1488 3.33906C3.17658 3.46575 3.3018 3.54566 3.42824 3.51794C3.5548 3.49016 3.63493 3.36503 3.60711 3.23847L3.5888 3.15506H3.7188C3.84839 3.15506 3.95343 3.05 3.95343 2.92044C3.95343 2.79084 3.84839 2.68581 3.7188 2.68581H3.5888L3.60711 2.60241C3.63493 2.47584 3.5548 2.35072 3.42824 2.32294C3.30177 2.29525 3.17655 2.37528 3.1488 2.50181L3.10843 2.68581H2.69343V2.27081L2.87739 2.23044C3.00396 2.20266 3.08408 2.07756 3.0563 1.95097C3.02852 1.82441 2.90336 1.74441 2.77683 1.77209L2.69343 1.79041V1.66041C2.69343 1.53081 2.58839 1.42578 2.4588 1.42578C2.32921 1.42578 2.22417 1.53084 2.22417 1.66041V1.79041L2.14074 1.77209C2.01399 1.74444 1.88905 1.82444 1.86127 1.95097C1.83349 2.07753 1.91361 2.20266 2.04017 2.23044L2.22417 2.27081V2.68581H1.80917L1.7688 2.50184C1.74099 2.37528 1.61614 2.29525 1.48933 2.32294C1.36277 2.35072 1.28264 2.47581 1.31042 2.60238L1.32874 2.68581H1.19874C1.06914 2.68581 0.964111 2.79088 0.964111 2.92044C0.964111 3.05003 1.06914 3.15506 1.19874 3.15506H1.32874V3.15503Z" fill="#BEAD8E"/>
<path d="M14.183 4.74983C14.183 4.25561 13.7809 3.85352 13.2867 3.85352C12.7924 3.85352 12.3904 4.25561 12.3904 4.74983C12.3904 5.24405 12.7924 5.64614 13.2867 5.64614C13.7809 5.64614 14.183 5.24405 14.183 4.74983ZM12.8596 4.74983C12.8596 4.51436 13.0512 4.32277 13.2867 4.32277C13.5222 4.32277 13.7138 4.51436 13.7138 4.74983C13.7138 4.9853 13.5222 5.17689 13.2867 5.17689C13.0512 5.17689 12.8596 4.9853 12.8596 4.74983Z" fill="#BEAD8E"/>
<path d="M11.8732 4.74983C11.8732 4.25561 11.4711 3.85352 10.9769 3.85352C10.4826 3.85352 10.0806 4.25561 10.0806 4.74983C10.0806 5.24405 10.4826 5.64614 10.9769 5.64614C11.4711 5.64614 11.8732 5.24405 11.8732 4.74983ZM10.5498 4.74983C10.5498 4.51436 10.7414 4.32277 10.9769 4.32277C11.2123 4.32277 11.4039 4.51436 11.4039 4.74983C11.4039 4.9853 11.2123 5.17689 10.9769 5.17689C10.7414 5.17689 10.5498 4.9853 10.5498 4.74983Z" fill="#BEAD8E"/>
<path d="M2.45878 5.38533C3.81456 5.38533 4.91753 4.28233 4.91753 2.92655C4.91753 1.57077 3.81453 0.467773 2.45878 0.467773C1.10303 0.467773 0 1.57077 0 2.92655C0 4.28233 1.10303 5.38533 2.45878 5.38533ZM2.45878 0.937023C3.55578 0.937023 4.44828 1.82952 4.44828 2.92655C4.44828 4.02358 3.55578 4.91608 2.45878 4.91608C1.36175 4.91608 0.46925 4.02358 0.46925 2.92655C0.46925 1.82952 1.36175 0.937023 2.45878 0.937023Z" fill="#BEAD8E"/>
<path d="M14.9414 2.09277H5.70881C5.57922 2.09277 5.47418 2.19784 5.47418 2.3274C5.47418 2.45696 5.57922 2.56202 5.70881 2.56202H14.9414C15.2663 2.56202 15.5307 2.82637 15.5307 3.1513V8.85696C15.5307 9.18187 15.2663 9.44624 14.9414 9.44624H14.183V7.3874C14.183 6.94371 13.8221 6.58274 13.3784 6.58274H3.27681C2.83312 6.58274 2.47218 6.94371 2.47218 7.3874V9.44624H1.71381C1.38887 9.44624 1.12452 9.1819 1.12452 8.85696V5.79805C1.12452 5.66846 1.01949 5.56343 0.889899 5.56343C0.760305 5.56343 0.655273 5.66849 0.655273 5.79805V8.85696C0.655273 9.44062 1.13012 9.91549 1.71381 9.91549H14.9414C15.5251 9.91549 15.9999 9.44062 15.9999 8.85696V3.1513C15.9999 2.56762 15.5251 2.09277 14.9414 2.09277ZM2.94143 7.99737H13.7138V8.50087H2.94143V7.99737ZM3.27681 7.05199H13.3784C13.5633 7.05199 13.7138 7.20246 13.7138 7.3874V7.52812H2.94143V7.3874C2.94143 7.20246 3.09187 7.05199 3.27681 7.05199ZM2.94143 8.97012H13.7138V9.44624H2.94143V8.97012Z" fill="#BEAD8E"/>
</svg>
