<svg width="16" height="13" viewBox="0 0 16 13" fill="none" xmlns="http://www.w3.org/2000/svg">
<path d="M16 7.42931C16 6.90005 15.7104 6.42321 15.2442 6.18484C14.7688 5.94171 14.1532 5.81843 13.4146 5.81843H5.38572C5.32791 5.52993 5.19981 5.26781 5.00766 5.05421L3.86906 3.78849C3.58731 3.47527 3.18244 3.28509 2.72906 3.25302L2.52453 3.23855C2.41981 3.23102 2.31341 3.2458 2.21128 3.28005V2.61096C2.21128 2.37659 2.11256 2.16493 1.95475 2.01496C2.11478 1.82315 2.21128 1.57652 2.21128 1.30777C2.21128 0.698117 1.71528 0.202148 1.10566 0.202148C0.496031 0.202148 0 0.698148 0 1.3078C0 1.57659 0.0965 1.82318 0.256531 2.01499C0.0987187 2.16499 0 2.37662 0 2.61099V12.5857C0 12.7583 0.139906 12.8982 0.3125 12.8982H1.39109C1.55228 12.8982 1.68703 12.7756 1.70222 12.6151C1.73944 12.2216 1.94753 11.1408 2.46309 10.6562H3.29988C3.47247 10.6562 3.61238 10.5162 3.61238 10.3437C3.61238 10.1711 3.47247 10.0312 3.29988 10.0312L0.624969 10.0311V7.28002L4.79609 7.27993V8.09427C4.79609 8.57609 5.18806 8.96809 5.66991 8.96809H5.66997H15.1262C15.2101 8.96809 15.2946 8.9559 15.375 8.93202V10.0312H13.6529C13.6527 10.0312 13.6524 10.0312 13.6521 10.0312H6.04956C5.87697 10.0312 5.73706 10.1711 5.73706 10.3437C5.73706 10.5163 5.87697 10.6562 6.04956 10.6562H13.5369C14.0504 11.1395 14.2599 12.2213 14.2978 12.6151C14.313 12.7756 14.4477 12.8982 14.6089 12.8982H15.6875C15.8601 12.8982 16 12.7583 16 12.5857V7.42931ZM2.21203 4.30184C2.21669 4.16868 2.19844 4.03109 2.30816 3.93318C2.41853 3.83468 2.55094 3.86696 2.68494 3.87646C2.98019 3.89737 3.22897 4.01146 3.40438 4.20649L4.54297 5.47224C4.72753 5.67737 4.81606 5.9633 4.79222 6.27727C4.78306 6.39815 4.78525 6.5053 4.68337 6.59059C4.59028 6.66852 4.48925 6.65399 4.37719 6.65065C4.06244 6.64121 3.78747 6.52302 3.60291 6.31787L2.46431 5.05215C2.28016 4.84737 2.20253 4.57371 2.21203 4.30184ZM0.625 6.65499V2.61099C0.625 2.50205 0.713625 2.41343 0.822563 2.41343H1.38866C1.49759 2.41343 1.58622 2.50205 1.58622 2.61099V6.65496H0.625V6.65499ZM2.21125 5.70527L3.06556 6.65499H2.21125V5.70527ZM1.10563 0.82718C1.37063 0.82718 1.58625 1.04277 1.58625 1.3078C1.58625 1.57284 1.37066 1.78843 1.10563 1.78843C0.840594 1.78843 0.625 1.57284 0.625 1.3078C0.625 1.04277 0.840594 0.82718 1.10563 0.82718ZM1.11881 12.2732H0.625V10.6562H1.67288C1.33469 11.2098 1.18175 11.8947 1.11881 12.2732ZM5.66994 8.34312C5.53278 8.34312 5.42119 8.23152 5.42119 8.09437L5.42106 6.44343H13.4146C14.0533 6.44343 14.5732 6.54365 14.9596 6.74127C15.2158 6.87227 15.375 7.1359 15.375 7.42931V8.09318C15.375 8.09359 15.3749 8.09399 15.3749 8.0944C15.3749 8.23155 15.2633 8.34315 15.1262 8.34315H5.66994V8.34312ZM14.8812 12.2732C14.8182 11.8947 14.6653 11.2099 14.3272 10.6562H15.375V12.2732H14.8812Z" fill="#BEAD8E"/>
<path d="M4.96347 10.2244C4.89881 10.0668 4.71221 9.99053 4.55534 10.0553C4.3979 10.1204 4.32112 10.3061 4.38627 10.4635C4.4514 10.6208 4.63712 10.6977 4.7944 10.6325C4.95137 10.5675 5.02881 10.3814 4.96347 10.2244Z" fill="#BEAD8E"/>
</svg>
