<svg width="16" height="15" viewBox="0 0 16 15" fill="none" xmlns="http://www.w3.org/2000/svg">
<path d="M15.4521 1.71971H13.4245C13.2836 1.20718 12.8092 0.831055 12.2618 0.831055H4.21359C3.6585 0.831055 3.19009 1.20824 3.05053 1.71971H0.547938C0.245813 1.71971 0 1.96552 0 2.26768V2.78233C0 3.08446 0.245813 3.33027 0.547938 3.33027H3.00791V7.74095C3.00791 7.87064 3.11303 7.9758 3.24275 7.9758C3.37247 7.9758 3.47759 7.87064 3.47759 7.74095V2.03674C3.47759 1.63093 3.80775 1.30074 4.21359 1.30074H11.3075C11.15 1.50449 11.0562 1.7599 11.0562 2.03674V10.5393H3.47759V8.6803C3.47759 8.55061 3.37244 8.44545 3.24275 8.44545C3.11306 8.44545 3.00791 8.55061 3.00791 8.6803V13.5639C3.00791 13.9524 3.32394 14.2684 3.71241 14.2684H10.8213C11.2098 14.2684 11.5258 13.9524 11.5258 13.5639V10.1434H12.763C13.1514 10.1434 13.4675 9.82739 13.4675 9.43892V5.32767C13.4675 5.19799 13.3623 5.09283 13.2326 5.09283C13.1029 5.09283 12.9978 5.19796 12.9978 5.32767V9.43892C12.9978 9.56842 12.8924 9.67376 12.7629 9.67376H11.5258V3.33027H12.9978V4.38833C12.9978 4.51802 13.1029 4.62318 13.2326 4.62318C13.3623 4.62318 13.4675 4.51805 13.4675 4.38833V3.33027H15.452C15.7542 3.33027 16 3.08446 16 2.78233V2.26768C16 1.96552 15.7542 1.71971 15.4521 1.71971ZM0.547938 2.86061C0.504781 2.86061 0.469656 2.82549 0.469656 2.78233V2.26768C0.469656 2.22452 0.504781 2.1894 0.547938 2.1894H3.00791V2.86061H0.547938ZM12.2618 1.30074C12.5502 1.30074 12.8051 1.47187 12.9248 1.71974H11.5977C11.7163 1.47215 11.9694 1.30074 12.2618 1.30074ZM10.8213 13.7987H3.71244C3.58297 13.7987 3.47759 13.6934 3.47759 13.5639V12.5546H8.34966C8.47934 12.5546 8.5845 12.4494 8.5845 12.3198C8.5845 12.1901 8.47934 12.0849 8.34966 12.0849H3.47759V11.0089H11.0562V12.0849H9.289C9.15931 12.0849 9.05416 12.1901 9.05416 12.3198C9.05416 12.4494 9.15931 12.5546 9.289 12.5546H11.0562V13.5639C11.0561 13.6934 10.9508 13.7987 10.8213 13.7987ZM15.5303 2.78233C15.5303 2.82549 15.4952 2.86061 15.4521 2.86061H11.5258V2.1894H15.4521C15.4952 2.1894 15.5303 2.22452 15.5303 2.26768V2.78233Z" fill="#BEAD8E"/>
</svg>
