<svg width="16" height="17" viewBox="0 0 16 17" fill="none" xmlns="http://www.w3.org/2000/svg">
<path d="M14.576 1.9735C12.6777 0.0752502 9.58858 0.075219 7.68989 1.97353C6.29189 3.37181 5.88317 5.48318 6.63914 7.29372L0.0947323 13.8382C0.0301697 13.9027 -0.0040803 13.9916 0.000388454 14.0827L0.101295 16.1416C0.10942 16.3078 0.242326 16.4407 0.408545 16.4488L2.46711 16.5494C2.47242 16.5496 2.47764 16.5498 2.48292 16.5498C2.56845 16.5498 2.65073 16.5158 2.71155 16.4551L3.41758 15.7494C3.47827 15.6887 3.51236 15.6065 3.51236 15.5206V14.0064H5.02661C5.11239 14.0064 5.19467 13.9723 5.2553 13.9117L6.04667 13.1203C6.10733 13.0596 6.14139 12.9774 6.14139 12.8916V11.3773H7.65564C7.74143 11.3773 7.82371 11.3432 7.88433 11.2826L9.2563 9.91062C11.0671 10.6664 13.1782 10.2576 14.5762 8.85993C14.5762 8.8599 14.5762 8.8599 14.5762 8.85987C16.4746 6.96122 16.4744 3.872 14.576 1.9735ZM14.1189 8.40247C12.8594 9.66181 10.9322 9.99537 9.3234 9.23256C9.19977 9.17403 9.05283 9.19943 8.95615 9.29612L7.52174 10.7305H5.81802C5.63939 10.7305 5.49461 10.8753 5.49461 11.0539V12.7577L4.89267 13.3596H3.18892C3.0103 13.3596 2.86552 13.5044 2.86552 13.683V15.3867L2.35558 15.8964L0.733014 15.8171L0.653483 14.1943L7.25374 7.59397C7.35043 7.49728 7.37586 7.35022 7.31727 7.22668C6.55424 5.618 6.88783 3.69072 8.14733 2.43094C9.79374 0.784844 12.4724 0.78475 14.1186 2.43091C15.7649 4.07719 15.765 6.75606 14.1189 8.40247Z" fill="#BEAD8E"/>
</svg>
