<svg width="12" height="10" viewBox="0 0 12 10" fill="none" xmlns="http://www.w3.org/2000/svg">
<path d="M5.95 6.32047C5.24315 6.32047 4.53629 6.61153 4.07892 7.15207C3.66312 7.65102 2.91469 6.98575 3.33048 6.48679C3.99576 5.73836 4.95209 5.32256 5.95 5.32256C6.94791 5.32256 7.90424 5.73836 8.56952 6.48679C8.98531 6.98575 8.23688 7.65102 7.82108 7.15207C7.36371 6.61153 6.65685 6.32047 5.95 6.32047ZM5.95 9.81316C5.40946 9.81316 4.95209 9.35579 4.95209 8.81525C4.95209 8.27472 5.40946 7.81734 5.95 7.81734C6.49053 7.81734 6.94791 8.27472 6.94791 8.81525C6.94791 9.35579 6.49053 9.81316 5.95 9.81316ZM5.95 3.8257C4.61945 3.8257 3.41364 4.28307 2.45731 5.2394C2.04151 5.6552 1.2515 5.03151 1.75046 4.53255C2.87311 3.4099 4.36997 2.82779 5.95 2.82779C7.53003 2.82779 9.02689 3.4099 10.1495 4.53255C10.6485 5.03151 9.85849 5.6552 9.44269 5.2394C8.48636 4.28307 7.28055 3.8257 5.95 3.8257ZM5.95 1.33092C4.03734 1.33092 2.24941 2.03777 0.877283 3.32674C0.378328 3.78412 -0.328526 3.07726 0.17043 2.61989C1.79204 1.12302 3.78786 0.333008 5.95 0.333008C8.11214 0.333008 10.108 1.12302 11.7296 2.61989C12.2285 3.07726 11.5217 3.78412 11.0227 3.32674C9.65059 2.03777 7.86266 1.33092 5.95 1.33092Z" fill="#222222"/>
</svg>
