<svg width="12" height="10" viewBox="0 0 12 10" fill="none" xmlns="http://www.w3.org/2000/svg">
<path fill-rule="evenodd" clip-rule="evenodd" d="M1.75638 3.28816L1.93336 2.75725H1.63638C1.36851 2.75725 1.15154 2.54028 1.15154 2.2724C1.15154 2.00452 1.36851 1.78755 1.63638 1.78755C1.93335 1.78755 2.2565 1.78755 2.2565 1.78755C2.2565 1.78755 2.48778 1.09374 2.63105 0.664647C2.69699 0.466586 2.8822 0.333008 3.09093 0.333008C4.22232 0.333008 7.77772 0.333008 8.90911 0.333008C9.11784 0.333008 9.30305 0.466586 9.36899 0.664647L9.74354 1.78755H10.3637C10.6315 1.78755 10.8485 2.00452 10.8485 2.2724C10.8485 2.54028 10.6315 2.75725 10.3637 2.75725H10.0667L10.2437 3.28816C10.8703 3.4501 11.3334 4.01931 11.3334 4.69664V9.06028C11.3334 9.32816 11.1164 9.54513 10.8485 9.54513C10.5523 9.54513 10.1751 9.54513 9.87881 9.54513C9.61093 9.54513 9.39396 9.32816 9.39396 9.06028V8.57543H2.60608V9.06028C2.60608 9.32816 2.38911 9.54513 2.12123 9.54513C1.82499 9.54513 1.44778 9.54513 1.15154 9.54513C0.883657 9.54513 0.666687 9.32816 0.666687 9.06028C0.666687 8.1381 0.666687 6.09834 0.666687 4.69664C0.666687 4.01931 1.12972 3.4501 1.75638 3.28816ZM2.60608 5.18149C2.87396 5.18149 3.09093 5.39846 3.09093 5.66634C3.09093 5.93422 2.87396 6.15119 2.60608 6.15119C2.18305 6.15119 1.63638 6.15119 1.63638 6.15119V7.60574H3.27614C3.27614 7.60574 3.84584 6.46658 4.11178 5.93446C4.19396 5.7701 4.36172 5.66634 4.54547 5.66634C5.20826 5.66634 6.79178 5.66634 7.45457 5.66634C7.63832 5.66634 7.80608 5.7701 7.88826 5.93446C8.1542 6.46658 8.7239 7.60574 8.7239 7.60574H10.3637V6.15119H9.39396C9.12608 6.15119 8.90911 5.93422 8.90911 5.66634C8.90911 5.39846 9.12608 5.18149 9.39396 5.18149C9.81699 5.18149 10.3637 5.18149 10.3637 5.18149V4.69664C10.3637 4.42877 10.1467 4.2118 9.87881 4.2118C8.35105 4.2118 3.64899 4.2118 2.12123 4.2118C1.85335 4.2118 1.63638 4.42877 1.63638 4.69664V5.18149H2.60608ZM7.15493 6.63604H4.84511L4.36026 7.60574H7.63978L7.15493 6.63604ZM3.44051 1.3027L2.79396 3.2421H9.20608L8.55954 1.3027H3.44051Z" fill="#222222"/>
</svg>
