<svg width="14" height="11" viewBox="0 0 14 11" fill="none" xmlns="http://www.w3.org/2000/svg">
<path d="M5.05095 4.17525L9.03992 6.47828M6.19117 1.50942L4.79503 0.703356C4.62981 0.607961 4.41853 0.664573 4.32313 0.829801L1.7898 5.21766C1.6944 5.38291 1.75102 5.59417 1.91625 5.68956L3.31238 6.49562C3.47761 6.59102 3.68888 6.53442 3.78428 6.36918L6.31762 1.98132C6.41301 1.81609 6.3564 1.60481 6.19117 1.50942ZM12.1746 4.96396L10.7785 4.1579C10.6132 4.0625 10.402 4.11912 10.3066 4.28435L7.77325 8.67221C7.67785 8.83745 7.73445 9.04871 7.89969 9.14411L9.29583 9.95017C9.46107 10.0456 9.67233 9.98897 9.76773 9.82372L12.3011 5.43586C12.3965 5.27063 12.3399 5.05936 12.1746 4.96396ZM0.869696 3.35679L2.25151 0.963407C2.34691 0.798179 2.55819 0.741567 2.72341 0.836961L3.62093 1.35514C3.78616 1.45054 3.84277 1.66181 3.74738 1.82704L2.36556 4.22042C2.27016 4.38567 2.05889 4.44226 1.89366 4.34687L0.996141 3.82869C0.830914 3.73329 0.774293 3.52203 0.869696 3.35679ZM11.8394 9.69012L13.2212 7.29674C13.3166 7.13151 13.26 6.92024 13.0947 6.82484L12.1972 6.30666C12.032 6.21126 11.8207 6.26788 11.7253 6.4331L10.3435 8.82648C10.2481 8.99173 10.3047 9.20298 10.4699 9.29838L11.3675 9.81656C11.5327 9.91197 11.7439 9.85536 11.8394 9.69012Z" stroke="#222222" stroke-linecap="round" stroke-linejoin="round"/>
</svg>
