<svg width="14" height="14" viewBox="0 0 14 14" fill="none" xmlns="http://www.w3.org/2000/svg">
<path d="M4.33333 7.66667V10.3333M9.66667 2.33333V2.66667C9.66667 3.02029 9.80714 3.35943 10.0572 3.60948C10.3072 3.85952 10.6464 4 11 4C11.3536 4 11.6928 4.14048 11.9428 4.39052C12.1929 4.64057 12.3333 4.97971 12.3333 5.33333V5.66667M1 1L13 13M10.3333 10.3333H1.66667C1.48986 10.3333 1.32029 10.2631 1.19526 10.1381C1.07024 10.013 1 9.84348 1 9.66667V8.33333C1 8.15652 1.07024 7.98695 1.19526 7.86193C1.32029 7.7369 1.48986 7.66667 1.66667 7.66667H7.66667M10.3333 7.66667H12.3333C12.5101 7.66667 12.6797 7.7369 12.8047 7.86193C12.9298 7.98695 13 8.15652 13 8.33333V9.66667C13 9.85333 12.9233 10.022 12.8 10.1427L10.3333 7.66667Z" stroke="#222222" stroke-linecap="round" stroke-linejoin="round"/>
</svg>
