<svg width="57" height="64" viewBox="0 0 57 64" fill="none" xmlns="http://www.w3.org/2000/svg">
<path d="M51.9964 16.582C51.4408 16.5819 50.8977 16.7466 50.4358 17.0551C49.9738 17.3637 49.6137 17.8023 49.4011 18.3155C49.1884 18.8288 49.1327 19.3935 49.241 19.9384C49.3494 20.4833 49.6168 20.9838 50.0096 21.3766C50.4024 21.7695 50.9029 22.037 51.4477 22.1454C51.9926 22.2539 52.5573 22.1983 53.0706 21.9857C53.5838 21.7731 54.0225 21.4131 54.3312 20.9512C54.6398 20.4893 54.8046 19.9463 54.8046 19.3907C54.8038 18.6462 54.5077 17.9323 53.9812 17.4057C53.4548 16.8792 52.741 16.5829 51.9964 16.582ZM51.9964 20.676C51.7421 20.6761 51.4936 20.6008 51.2822 20.4597C51.0707 20.3185 50.9059 20.1178 50.8086 19.8829C50.7112 19.6481 50.6857 19.3897 50.7352 19.1403C50.7847 18.891 50.9071 18.6619 51.0868 18.4821C51.2666 18.3023 51.4956 18.1798 51.7449 18.1302C51.9942 18.0806 52.2527 18.106 52.4876 18.2033C52.7225 18.3005 52.9232 18.4653 53.0645 18.6766C53.2057 18.888 53.2811 19.1365 53.2811 19.3907C53.2809 19.7315 53.1454 20.0582 52.9046 20.2991C52.6637 20.5401 52.3371 20.6757 51.9964 20.6761V20.676Z" fill="#BEAD8E"/>
<path d="M19.3567 9.70227C20.0111 9.70255 20.651 9.50873 21.1953 9.14534C21.7395 8.78195 22.1638 8.2653 22.4145 7.66075C22.6651 7.0562 22.7308 6.39089 22.6033 5.74899C22.4758 5.10708 22.1608 4.5174 21.6981 4.05454C21.2355 3.59168 20.6459 3.27642 20.0041 3.14864C19.3622 3.02086 18.6969 3.0863 18.0922 3.33668C17.4876 3.58707 16.9708 4.01115 16.6071 4.55528C16.2435 5.09942 16.0494 5.73917 16.0494 6.39362C16.0502 7.27065 16.3989 8.11156 17.0189 8.73184C17.6389 9.35213 18.4797 9.70113 19.3567 9.70227ZM19.3567 4.6084C19.7098 4.60812 20.0551 4.71259 20.3489 4.90858C20.6426 5.10458 20.8717 5.38329 21.007 5.70948C21.1423 6.03566 21.1779 6.39465 21.1092 6.74104C21.0404 7.08743 20.8705 7.40565 20.6209 7.65546C20.3713 7.90527 20.0532 8.07543 19.7069 8.14443C19.3605 8.21342 19.0015 8.17815 18.6752 8.04307C18.349 7.908 18.0701 7.67918 17.8738 7.38557C17.6776 7.09197 17.5729 6.74676 17.5729 6.39362C17.5732 5.92049 17.7612 5.46682 18.0956 5.13214C18.43 4.79746 18.8836 4.60911 19.3567 4.6084Z" fill="#BEAD8E"/>
<path d="M32.1436 28.9299C32.1433 28.2758 31.9491 27.6365 31.5855 27.0929C31.2219 26.5492 30.7053 26.1255 30.101 25.8754C29.4966 25.6253 28.8317 25.56 28.1902 25.6877C27.5488 25.8155 26.9596 26.1306 26.4972 26.5932C26.0348 27.0558 25.72 27.6451 25.5925 28.2866C25.465 28.9281 25.5306 29.593 25.7809 30.1972C26.0313 30.8015 26.4552 31.3179 26.999 31.6813C27.5429 32.0446 28.1823 32.2385 28.8363 32.2385C29.7133 32.2374 30.5541 31.8883 31.1741 31.2681C31.7941 30.6478 32.1428 29.8069 32.1436 28.9299ZM28.8363 30.7151C28.4832 30.7154 28.1379 30.6109 27.8441 30.4149C27.5504 30.2189 27.3213 29.9402 27.186 29.614C27.0507 29.2878 27.0151 28.9289 27.0838 28.5825C27.1526 28.2361 27.3225 27.9178 27.5721 27.668C27.8217 27.4182 28.1398 27.2481 28.4861 27.1791C28.8325 27.1101 29.1915 27.1453 29.5178 27.2804C29.844 27.4155 30.1229 27.6443 30.3192 27.9379C30.5154 28.2315 30.6201 28.5767 30.6201 28.9299C30.6198 29.403 30.4318 29.8568 30.0973 30.1914C29.7628 30.5261 29.3092 30.7145 28.8361 30.7151H28.8363Z" fill="#BEAD8E"/>
<path d="M6.99958 20.0382C7.65403 20.0385 8.29386 19.8447 8.83815 19.4813C9.38243 19.1179 9.80673 18.6012 10.0574 17.9967C10.308 17.3921 10.3737 16.7268 10.2462 16.0849C10.1187 15.443 9.80371 14.8533 9.34104 14.3905C8.87837 13.9276 8.28883 13.6124 7.64697 13.4846C7.00512 13.3568 6.33979 13.4222 5.73513 13.6726C5.13047 13.923 4.61365 14.3471 4.25003 14.8912C3.88641 15.4354 3.69232 16.0751 3.69232 16.7296C3.69313 17.6066 4.04178 18.4475 4.6618 19.0677C5.28182 19.688 6.12256 20.037 6.99958 20.0382ZM6.99958 14.9443C7.35272 14.9441 7.69801 15.0485 7.99177 15.2445C8.28553 15.4405 8.51456 15.7192 8.6499 16.0454C8.78523 16.3716 8.82078 16.7306 8.75206 17.077C8.68333 17.4234 8.51342 17.7416 8.26381 17.9914C8.01419 18.2412 7.6961 18.4114 7.34977 18.4804C7.00343 18.5494 6.64441 18.5141 6.31812 18.379C5.99184 18.2439 5.71294 18.0151 5.51672 17.7215C5.3205 17.4279 5.21576 17.0827 5.21576 16.7296C5.2161 16.2564 5.4041 15.8028 5.73851 15.4681C6.07293 15.1334 6.52645 14.945 6.99958 14.9443Z" fill="#BEAD8E"/>
<path d="M56.8004 19.2031C56.637 16.6895 54.5833 14.7208 52.125 14.7208C50.9889 14.7232 49.8938 15.1454 49.0502 15.9063C46.554 13.4679 43.4377 11.3676 39.988 9.80631C36.0763 8.03595 32.0095 7.10018 28.2274 7.10018C27.1842 7.10968 26.1421 7.17435 25.1057 7.29391C25.1576 6.92254 25.1714 6.54683 25.1468 6.17266C24.9498 3.14279 22.4767 0.769531 19.5167 0.769531C16.5566 0.769531 14.0831 3.14279 13.8866 6.17139C13.816 7.55755 14.2338 8.92458 15.0672 10.0344L15.2245 10.2448C13.8308 11.0334 12.4879 11.9087 11.2039 12.8656C10.6852 12.3121 10.0589 11.8705 9.36335 11.5678C8.6678 11.2651 7.91773 11.1078 7.15918 11.1055C4.19902 11.1055 1.72559 13.4796 1.52919 16.5074C1.45867 17.8936 1.87646 19.2606 2.70986 20.3706L3.61795 21.585C1.4661 25.7234 0.189456 30.7627 0.189456 35.1653C0.18161 38.8524 0.901045 42.5047 2.30657 45.9133C3.7121 49.322 5.77613 52.4199 8.38048 55.0298C10.9848 57.6397 14.0784 59.7103 17.484 61.1231C20.8896 62.5359 24.5405 63.2631 28.2275 63.2631C31.9145 63.2631 35.5654 62.5359 38.971 61.1231C42.3766 59.7103 45.4702 57.6397 48.0745 55.0298C50.6789 52.4199 52.7429 49.322 54.1484 45.9133C55.5539 42.5047 56.2734 38.8524 56.2655 35.1653C56.2655 32.0405 55.4697 27.3543 54.4302 24.2669L55.8212 22.407C56.5203 21.4906 56.8678 20.3538 56.8004 19.2031ZM15.4067 6.27143C15.5336 4.31635 17.106 2.29297 19.5167 2.29297C21.9274 2.29297 23.4993 4.31584 23.6267 6.27346C23.6832 7.29783 23.3708 8.30855 22.746 9.12228L19.5167 13.4419L16.2928 9.12978C15.6727 8.30972 15.3592 7.29846 15.4067 6.27143ZM3.04971 16.6074C3.17666 14.6524 4.74885 12.629 7.15956 12.629C9.57027 12.629 11.1423 14.6519 11.2695 16.6096C11.3262 17.6339 11.0138 18.6447 10.3889 19.4583L7.15918 23.7779L3.93571 19.4658C3.31563 18.6457 3.00217 17.6345 3.04971 16.6074ZM4.63942 22.9513L6.54981 25.5061C6.62073 25.601 6.7128 25.678 6.81871 25.731C6.92461 25.7841 7.04143 25.8117 7.15988 25.8117C7.27833 25.8117 7.39515 25.7841 7.50105 25.731C7.60696 25.678 7.69903 25.601 7.76995 25.5061L11.6085 20.3711C12.2883 19.4852 12.6963 18.4211 12.7832 17.3079C12.87 16.1947 12.6319 15.0801 12.0977 14.0996C13.3879 13.1372 14.7403 12.261 16.1459 11.4768L18.9068 15.1696C18.9777 15.2644 19.0698 15.3415 19.1757 15.3945C19.2816 15.4476 19.3984 15.4752 19.5169 15.4752C19.6353 15.4752 19.7521 15.4476 19.858 15.3945C19.9639 15.3415 20.056 15.2644 20.1269 15.1696L23.9657 10.0347C24.234 9.67717 24.4621 9.29124 24.6461 8.88387C24.9626 8.84337 25.2788 8.80554 25.5906 8.77393L28.7898 13.3894C29.1605 13.9218 29.3515 14.5586 29.3352 15.2071C29.3188 15.8555 29.0959 16.4819 28.6989 16.9949L27.7953 18.1683C27.5748 18.4535 27.2838 18.6763 26.9509 18.8147C26.6181 18.9531 26.2549 19.0023 25.8972 18.9575L24.8722 18.8265C24.1499 18.7338 23.4163 18.8555 22.7627 19.1764C22.109 19.4973 21.5641 20.0033 21.1958 20.6315C20.9883 20.9853 20.6814 21.2704 20.3133 21.4513C19.9452 21.6323 19.532 21.7011 19.1251 21.6493L16.7585 21.3484C16.0506 21.2563 15.3311 21.3634 14.6808 21.6577C14.0304 21.9519 13.475 22.4217 13.0768 23.0141C12.7043 23.5645 12.5004 24.2116 12.4902 24.8762C12.4799 25.5407 12.6638 26.1938 13.0192 26.7554L14.5826 29.2266C14.8708 29.6793 15.2686 30.0519 15.7393 30.3097C16.21 30.5675 16.7382 30.7022 17.2748 30.7013C17.7947 30.7017 18.3066 30.5732 18.7647 30.3274L20.3745 29.4641C21.1631 29.0412 22.4438 29.037 23.3669 29.4174C23.455 30.5582 23.8638 31.651 24.5462 32.5695L28.3857 37.706C28.4567 37.8009 28.5487 37.8779 28.6546 37.931C28.7605 37.984 28.8774 38.0117 28.9958 38.0117C29.1143 38.0117 29.2311 37.984 29.337 37.931C29.4429 37.8779 29.535 37.8009 29.6059 37.706L31.5532 35.1012L31.8008 35.4404C31.9056 35.5867 32.018 35.7306 32.1349 35.8683L34.09 38.1709C34.1771 38.2736 34.2425 38.3928 34.2822 38.5215C34.3219 38.6501 34.335 38.7854 34.3208 38.9193C34.3066 39.0532 34.2654 39.1828 34.1997 39.3003C34.1339 39.4177 34.045 39.5206 33.9383 39.6027L30.9756 41.8809C30.1871 42.4848 29.607 43.32 29.3164 44.2698L28.3289 47.4756C28.2513 47.7284 28.1242 47.9634 27.9551 48.1667L26.9942 49.3235C26.2784 50.1835 25.8353 51.2375 25.7214 52.3506C25.6935 52.6213 25.5934 52.8795 25.4314 53.0981C25.2693 53.3167 25.0515 53.4877 24.8006 53.5931C24.6954 53.6371 24.5817 53.6567 24.4678 53.6506C24.354 53.6444 24.243 53.6125 24.1433 53.5573C24.0435 53.5021 23.9575 53.4251 23.8918 53.3319C23.826 53.2388 23.7822 53.132 23.7636 53.0195L22.8585 47.5835C22.7455 46.908 22.4697 46.2701 22.0551 45.7249L18.739 41.3728C18.441 40.9825 18.2207 40.5386 18.09 40.0652L16.9955 36.1133C16.802 35.4209 16.4327 34.7903 15.9235 34.2827C15.4143 33.7752 14.7825 33.408 14.0894 33.2168L13.8515 33.152C13.3701 33.0201 12.9283 32.7723 12.5647 32.4302L10.5234 30.5064C10.1983 30.2002 9.91934 29.8484 9.69532 29.462C9.22029 28.6429 8.50134 27.9927 7.63887 27.6021C6.7764 27.2115 5.81348 27.1 4.88456 27.2832C4.8548 27.289 4.82542 27.2967 4.79658 27.306L2.75124 27.9714C3.22842 26.2447 3.86037 24.5645 4.63942 22.9513ZM24.8862 28.8074C25.0131 26.8523 26.5853 24.8289 28.996 24.8289C31.4067 24.8289 32.9788 26.8518 33.106 28.8095C33.1627 29.8339 32.8502 30.8446 32.2253 31.6582L28.996 35.9778L25.7722 31.6657C25.1521 30.8457 24.8386 29.8344 24.8862 28.8074ZM54.7421 35.1653C54.7421 49.8005 42.8476 61.707 28.2274 61.707C13.6073 61.707 1.71289 49.8005 1.71289 35.1653C1.72533 33.3314 1.92991 31.5038 2.32328 29.7126L5.222 28.7697C5.83403 28.6581 6.46558 28.7381 7.03043 28.9988C7.59527 29.2596 8.06586 29.6883 8.37793 30.2265C8.67589 30.7402 9.04681 31.2081 9.47912 31.6153L11.5205 33.5385C12.0661 34.0515 12.7288 34.4231 13.451 34.6211L13.6889 34.6858C14.1274 34.807 14.5272 35.0395 14.8493 35.3608C15.1714 35.6822 15.405 36.0813 15.5273 36.5195L16.6218 40.4721C16.8041 41.1326 17.1114 41.7521 17.5272 42.2968L20.8433 46.649C21.1078 46.9967 21.2837 47.4036 21.3557 47.8345L22.2609 53.2705C22.3166 53.61 22.4487 53.9324 22.6471 54.2135C22.8454 54.4946 23.105 54.727 23.4061 54.8933C23.7073 55.0596 24.0423 55.1555 24.3859 55.1736C24.7294 55.1917 25.0726 55.1317 25.3896 54.9981C25.8927 54.787 26.3296 54.4443 26.6545 54.0061C26.9794 53.5678 27.1804 53.0502 27.2362 52.5075C27.3193 51.6946 27.6429 50.925 28.1656 50.2969L29.1265 49.1401C29.4243 48.7823 29.6479 48.3689 29.7844 47.9239L30.7716 44.718C30.9697 44.0703 31.3653 43.5007 31.903 43.0888L34.867 40.8105C35.1372 40.6027 35.3625 40.3422 35.5291 40.0447C35.6956 39.7473 35.8001 39.4191 35.836 39.08C35.872 38.741 35.8387 38.3982 35.7382 38.0724C35.6378 37.7466 35.4722 37.4446 35.2515 37.1848L33.2964 34.8821C33.2065 34.7762 33.1201 34.6655 33.0359 34.5481L32.5082 33.8244L33.4452 32.5712C34.288 31.4663 34.7069 30.0959 34.6259 28.7086C34.429 25.6788 31.9559 23.3055 28.9958 23.3055C26.3208 23.3055 24.0446 25.2437 23.4848 27.8518C22.2195 27.4788 20.7046 27.5598 19.6547 28.1225L18.0449 28.9858C17.6768 29.1814 17.2485 29.2311 16.8455 29.1249C16.4424 29.0187 16.0941 28.7645 15.8702 28.4129L14.3066 25.9417C14.1097 25.6305 14.0078 25.2686 14.0135 24.9004C14.0191 24.5322 14.1321 24.1736 14.3385 23.8687C14.5794 23.5101 14.9155 23.2258 15.3091 23.0477C15.7026 22.8697 16.138 22.8048 16.5664 22.8605L18.9331 23.1613C19.6358 23.2511 20.3494 23.1325 20.9852 22.8201C21.621 22.5076 22.151 22.0153 22.5092 21.4041C22.7264 21.0331 23.0479 20.7341 23.4337 20.5445C23.8196 20.3549 24.2527 20.283 24.6791 20.3377L25.704 20.4687C26.3255 20.5467 26.9567 20.4612 27.5351 20.2208C28.1135 19.9803 28.6192 19.5932 29.0024 19.0976L29.906 17.9242C30.501 17.1555 30.835 16.2168 30.8595 15.245C30.884 14.2733 30.5975 13.319 30.042 12.5213L27.3536 8.64393C27.6617 8.63123 27.955 8.62361 28.2274 8.62361C31.7948 8.62361 35.644 9.51229 39.3598 11.1943C40.524 11.7226 41.6554 12.3203 42.7478 12.9843L40.7016 16.4917C40.4083 17.0064 40.2825 17.5996 40.3416 18.1891C40.4008 18.7785 40.6419 19.335 41.0317 19.7811C41.6196 20.4546 42.4355 20.8874 43.3229 20.9963L43.694 21.042C44.0532 21.0866 44.3917 21.2344 44.6685 21.4676C44.9452 21.7007 45.1484 22.0092 45.2532 22.3556C45.3524 22.6847 45.3553 23.0353 45.2616 23.366C45.1679 23.6967 44.9815 23.9937 44.7245 24.2218L41.0499 27.4708C40.6775 27.8004 40.3793 28.2053 40.175 28.6587C39.9707 29.1122 39.865 29.6038 39.865 30.1012V30.9633C39.8638 31.4742 39.9912 31.9772 40.2355 32.4259C40.4798 32.8746 40.8331 33.2546 41.2628 33.5309C41.4765 33.6683 41.6562 33.8522 41.7886 34.069C41.921 34.2857 42.0025 34.5296 42.0271 34.7824L42.1131 35.6432C42.1804 36.34 42.5053 36.9867 43.0242 37.4567C43.5431 37.9267 44.2186 38.1862 44.9187 38.1844H47.0694C47.9604 38.1841 48.832 37.9244 49.5778 37.4369C50.3236 36.9494 50.9113 36.2553 51.269 35.4393L51.3983 35.1446C51.5249 34.8525 51.7312 34.602 51.9937 34.4217C52.2561 34.2414 52.564 34.1387 52.8821 34.1253L53.3867 34.1025C53.4688 34.0988 53.5508 34.0929 53.6325 34.0846L54.7054 33.9765C54.7293 34.3938 54.7421 34.793 54.7421 35.1653ZM54.579 32.457L53.4799 32.5676C53.4264 32.5731 53.3725 32.5769 53.3182 32.5794L52.8128 32.6024C52.2105 32.6277 51.6275 32.8221 51.1305 33.1634C50.6336 33.5046 50.2429 33.979 50.0031 34.5321L49.8738 34.8267C49.635 35.3717 49.2426 35.8353 48.7445 36.1609C48.2465 36.4866 47.6644 36.6601 47.0694 36.6603H44.9185C44.5965 36.661 44.2859 36.5416 44.0473 36.3253C43.8088 36.1091 43.6595 35.8117 43.6286 35.4912L43.5425 34.6303C43.4958 34.1496 43.3407 33.6858 43.089 33.2736C42.8372 32.8614 42.4953 32.5117 42.0889 32.2506C41.8734 32.112 41.6963 31.9213 41.5738 31.6963C41.4513 31.4712 41.3874 31.2189 41.388 30.9627V30.1005C41.388 29.819 41.4478 29.5407 41.5635 29.284C41.6791 29.0273 41.8479 28.7981 42.0587 28.6115L45.7332 25.3625C46.2082 24.9409 46.5527 24.3922 46.7259 23.7811C46.8991 23.1701 46.8939 22.5222 46.7108 21.9141C46.5203 21.2853 46.1514 20.7253 45.6489 20.3021C45.1463 19.8788 44.5318 19.6105 43.8797 19.5298L43.5086 19.4841C42.9933 19.4208 42.5194 19.1695 42.1779 18.7783C41.997 18.5716 41.8847 18.3138 41.8566 18.0405C41.8285 17.7672 41.8859 17.4919 42.0209 17.2526L44.0317 13.806C45.4809 14.7761 46.8379 15.8773 48.0857 17.0957C47.7149 17.7401 47.4973 18.4612 47.4497 19.2031C47.3908 20.3529 47.7371 21.4868 48.4282 22.4075L51.5149 26.535C51.5859 26.6299 51.6779 26.7069 51.7838 26.7599C51.8897 26.813 52.0065 26.8406 52.125 26.8406C52.2434 26.8406 52.3602 26.813 52.4661 26.7599C52.572 26.7069 52.664 26.6299 52.735 26.535L53.3026 25.776C53.9088 27.9646 54.3357 30.199 54.579 32.457ZM54.6017 21.4937L52.125 24.8056L49.6538 21.501C49.1759 20.8703 48.9339 20.0921 48.9698 19.3016C49.0675 17.7985 50.2745 16.2438 52.125 16.2438C53.9754 16.2438 55.1825 17.7985 55.2803 19.3034C55.3235 20.0913 55.0827 20.8685 54.6016 21.4939L54.6017 21.4937Z" fill="#BEAD8E"/>
</svg>
