<svg width="12" height="9" viewBox="0 0 12 9" fill="none" xmlns="http://www.w3.org/2000/svg">
<path d="M3.27273 4.36364C3.59637 4.36364 3.91274 4.26767 4.18184 4.08786C4.45094 3.90805 4.66068 3.65249 4.78453 3.35348C4.90838 3.05448 4.94079 2.72546 4.87765 2.40803C4.81451 2.09061 4.65866 1.79904 4.42981 1.57019C4.20096 1.34134 3.90939 1.18549 3.59197 1.12235C3.27454 1.05921 2.94552 1.09162 2.64652 1.21547C2.34751 1.33932 2.09195 1.54906 1.91214 1.81816C1.73233 2.08726 1.63636 2.40363 1.63636 2.72727C1.63636 3.16126 1.80877 3.57748 2.11564 3.88436C2.42252 4.19124 2.83874 4.36364 3.27273 4.36364ZM3.27273 2.18182C3.38061 2.18182 3.48607 2.21381 3.57577 2.27374C3.66547 2.33368 3.73538 2.41887 3.77666 2.51854C3.81795 2.61821 3.82875 2.72788 3.8077 2.83369C3.78665 2.93949 3.7347 3.03668 3.65842 3.11297C3.58214 3.18925 3.48495 3.2412 3.37914 3.26225C3.27333 3.28329 3.16366 3.27249 3.06399 3.23121C2.96432 3.18992 2.87913 3.12001 2.8192 3.03031C2.75926 2.94061 2.72727 2.83515 2.72727 2.72727C2.72727 2.58261 2.78474 2.44387 2.88703 2.34158C2.98933 2.23929 3.12806 2.18182 3.27273 2.18182ZM10.3636 1.09091H6C5.85534 1.09091 5.7166 1.14838 5.61431 1.25067C5.51201 1.35296 5.45455 1.4917 5.45455 1.63636V4.90909H1.09091V0.545455C1.09091 0.400791 1.03344 0.262053 0.931149 0.15976C0.828857 0.0574675 0.690118 0 0.545455 0C0.400791 0 0.262052 0.0574675 0.15976 0.15976C0.0574673 0.262053 0 0.400791 0 0.545455V7.63636C0 7.78103 0.0574673 7.91977 0.15976 8.02206C0.262052 8.12435 0.400791 8.18182 0.545455 8.18182C0.690118 8.18182 0.828857 8.12435 0.931149 8.02206C1.03344 7.91977 1.09091 7.78103 1.09091 7.63636V6H10.9091V7.63636C10.9091 7.78103 10.9666 7.91977 11.0689 8.02206C11.1711 8.12435 11.3099 8.18182 11.4545 8.18182C11.5992 8.18182 11.7379 8.12435 11.8402 8.02206C11.9425 7.91977 12 7.78103 12 7.63636V2.72727C12 2.29328 11.8276 1.87707 11.5207 1.57019C11.2138 1.26331 10.7976 1.09091 10.3636 1.09091ZM10.9091 4.90909H6.54545V2.18182H10.3636C10.5083 2.18182 10.647 2.23929 10.7493 2.34158C10.8516 2.44387 10.9091 2.58261 10.9091 2.72727V4.90909Z" fill="#222222"/>
</svg>
