<svg width="12" height="12" viewBox="0 0 12 12" fill="none" xmlns="http://www.w3.org/2000/svg">
<path d="M10.832 8.36893L9.40798 7.55243L10.6456 7.00868C10.818 6.93293 10.8974 6.73118 10.8219 6.55818C10.7479 6.39081 10.54 6.30868 10.3712 6.38243L8.67048 7.12956L6.68736 5.99231L8.66098 4.85306L10.381 5.60206C10.5556 5.67731 10.7577 5.59118 10.8299 5.42456C10.9047 5.25156 10.8252 5.05006 10.6529 4.97531L9.39661 4.42831L10.8279 3.60206C10.9069 3.55643 10.9634 3.48268 10.9869 3.39443C11.0104 3.30618 10.9982 3.21418 10.9525 3.13518C10.8615 2.97868 10.6435 2.91918 10.4857 3.01005L9.06411 3.83068L9.21636 2.48743C9.22686 2.3963 9.20111 2.30668 9.14398 2.23493C9.08711 2.16368 9.00598 2.11893 8.91611 2.10905C8.72486 2.08643 8.55736 2.22468 8.53773 2.41105L8.34461 4.25618L6.37498 5.40206V3.12668L7.86561 2.01268C7.93611 1.96093 7.98223 1.88443 7.99548 1.79718C8.00923 1.70605 7.98498 1.61055 7.92923 1.53505C7.82036 1.38743 7.61236 1.35355 7.46311 1.46343L6.37498 2.27505V0.62568C6.37498 0.42443 6.17686 0.28418 5.99898 0.28418C5.82211 0.28418 5.62498 0.42443 5.62498 0.62568V2.26505L4.55336 1.4633C4.40673 1.35443 4.19298 1.38743 4.08386 1.53493C4.02673 1.61193 4.00211 1.70893 4.01598 1.8008C4.02898 1.88668 4.07448 1.9618 4.14311 2.01193L5.62498 3.11618V5.40093L3.68486 4.28018L3.47823 2.4338C3.45761 2.26155 3.31411 2.13168 3.14411 2.13168C3.13048 2.13168 3.11636 2.13243 3.10336 2.13418C2.91886 2.1553 2.78473 2.32468 2.80448 2.5133L2.96223 3.85681L1.50711 3.02218C1.45561 2.99281 1.39711 2.97718 1.33798 2.97718C1.21573 2.97718 1.10223 3.04293 1.04173 3.14893C0.948859 3.3108 1.00498 3.5198 1.16798 3.6153L2.63236 4.45506L1.37823 5.00581C1.29448 5.04256 1.23011 5.10955 1.19723 5.19443C1.16411 5.27943 1.16623 5.37231 1.20286 5.45543C1.27486 5.62143 1.47623 5.70618 1.65273 5.63193L3.36998 4.87793L5.31686 5.99418L3.36586 7.12056L1.66323 6.37893C1.49411 6.30556 1.28686 6.38793 1.21386 6.55581C1.13836 6.72818 1.21761 6.93006 1.39061 7.00606L2.62961 7.54556L1.17686 8.38431C1.01473 8.47931 0.958984 8.68868 1.05261 8.85106C1.11336 8.95631 1.22711 9.02168 1.34886 9.02168C1.40948 9.02168 1.46873 9.00556 1.51911 8.97593L2.98161 8.13156L2.82648 9.49431C2.81648 9.58518 2.84236 9.67443 2.89961 9.74593C2.95661 9.81706 3.03786 9.86193 3.12536 9.87143C3.13873 9.87331 3.15311 9.87368 3.16736 9.87368C3.34111 9.87368 3.48686 9.74343 3.50648 9.56968L3.70198 7.70618L5.62498 6.58781V8.85781L4.30448 9.96243C4.16348 10.0806 4.14748 10.2962 4.26773 10.4416C4.33098 10.5199 4.43111 10.5667 4.53561 10.5667C4.62998 10.5667 4.69336 10.5262 4.74073 10.4886L5.62498 9.74693V11.3734C5.62498 11.5747 5.82211 11.7149 5.99898 11.7149C6.17686 11.7149 6.37498 11.5747 6.37498 11.3734V9.73593L7.27286 10.4901C7.42236 10.6104 7.62461 10.5819 7.73923 10.4431C7.79673 10.3739 7.82711 10.2881 7.82461 10.2009C7.82198 10.1063 7.78098 10.0214 7.70973 9.96206L6.37498 8.84656V6.58243L8.33848 7.71693L8.54673 9.58068C8.56736 9.75256 8.71123 9.88218 8.88161 9.88218C8.89773 9.88218 8.90773 9.88131 8.91873 9.87968C9.00873 9.86981 9.08948 9.82506 9.14611 9.75406C9.20336 9.68231 9.22911 9.59243 9.21848 9.50106L9.05986 8.14018L10.4922 8.96156C10.5436 8.99118 10.6024 9.00681 10.6621 9.00681C10.7845 9.00681 10.898 8.94093 10.9581 8.83493C11.0512 8.67243 10.995 8.46331 10.832 8.36893Z" fill="#222222"/>
</svg>
