<svg width="5" height="8" viewBox="0 0 5 8" fill="none" xmlns="http://www.w3.org/2000/svg">
<path d="M3.81877 7.63778C3.78183 7.6378 3.74525 7.63054 3.71112 7.61641C3.67698 7.60229 3.64596 7.58158 3.61983 7.55547L0.153147 4.08859C0.100421 4.03585 0.0708008 3.96433 0.0708008 3.88975C0.0708008 3.81517 0.100421 3.74365 0.153147 3.69091L3.61983 0.224032C3.64595 0.197907 3.67695 0.177181 3.71107 0.163038C3.74519 0.148894 3.78177 0.14161 3.81871 0.141602C3.85564 0.141593 3.89222 0.14886 3.92635 0.162987C3.96048 0.177114 3.99149 0.197825 4.01762 0.223938C4.04374 0.25005 4.06447 0.281053 4.07861 0.315175C4.09275 0.349298 4.10004 0.385872 4.10005 0.422809C4.10005 0.459746 4.09279 0.496324 4.07866 0.530453C4.06453 0.564582 4.04382 0.595594 4.01771 0.621719L0.749772 3.88966L4.01771 7.15759C4.05707 7.19693 4.08388 7.24705 4.09474 7.30162C4.1056 7.3562 4.10003 7.41277 4.07873 7.46418C4.05744 7.51558 4.02137 7.55952 3.97509 7.59042C3.92882 7.62132 3.87442 7.6378 3.81877 7.63778Z" fill="#111111"/>
</svg>
