<svg width="5" height="8" viewBox="0 0 5 8" fill="none" xmlns="http://www.w3.org/2000/svg">
<path d="M1.18123 7.63778C1.21817 7.63779 1.25475 7.63053 1.28888 7.61641C1.32302 7.60229 1.35404 7.58158 1.38017 7.55547L4.84685 4.08859C4.89958 4.03585 4.9292 3.96433 4.9292 3.88975C4.9292 3.81517 4.89958 3.74365 4.84685 3.69091L1.38017 0.224032C1.35405 0.197907 1.32305 0.177181 1.28893 0.163038C1.25481 0.148894 1.21823 0.14161 1.18129 0.141602C1.14436 0.141593 1.10778 0.14886 1.07365 0.162987C1.03952 0.177114 1.00851 0.197825 0.982384 0.223938C0.956259 0.25005 0.935534 0.281053 0.92139 0.315175C0.907247 0.349298 0.899962 0.385872 0.899954 0.422809C0.899945 0.459746 0.907212 0.496324 0.92134 0.530453C0.935467 0.564582 0.956178 0.595594 0.982291 0.621719L4.25023 3.88966L0.982291 7.15759C0.942931 7.19693 0.916124 7.24705 0.905262 7.30162C0.894399 7.3562 0.899969 7.41277 0.921266 7.46418C0.942564 7.51558 0.978632 7.55952 1.02491 7.59042C1.07118 7.62132 1.12558 7.6378 1.18123 7.63778Z" fill="white"/>
</svg>
